<svg data-v-423bf9ae="" xmlns="http://www.w3.org/2000/svg" viewBox="0 0 121.17856777018423 60" class="font"><!----><!----><!----><g data-v-423bf9ae="" id="e1bc7e2a-c9b3-43e4-89b7-1e77a99fd01c" fill="white" transform="matrix(5.357142948374458,0,0,5.357142948374458,-3.7499997631019113,-5.62499960192612)"><path d="M0.70 10.23L0.70 10.23L0.70 8.78L0.70 8.78Q0.70 8.55 0.92 8.55L0.92 8.55L2.32 8.55L2.32 8.55Q2.43 8.55 2.49 8.61L2.49 8.61L2.49 8.61Q2.55 8.67 2.55 8.78L2.55 8.78L2.55 9.84L2.55 9.84Q2.55 10.40 3.11 10.40L3.11 10.40L3.83 10.40L3.83 10.40Q4.40 10.40 4.40 9.84L4.40 9.84L4.40 1.27L4.40 1.27Q4.40 1.05 4.62 1.05L4.62 1.05L6.08 1.05L6.08 1.05Q6.30 1.05 6.30 1.27L6.30 1.27L6.30 10.23L6.30 10.23Q6.30 11.22 5.78 11.73L5.78 11.73L5.78 11.73Q5.26 12.25 4.29 12.25L4.29 12.25L2.71 12.25L2.71 12.25Q1.72 12.25 1.21 11.74L1.21 11.74L1.21 11.74Q0.70 11.22 0.70 10.23ZM7.70 12.02L7.70 12.02L7.70 1.27L7.70 1.27Q7.70 1.05 7.94 1.05L7.94 1.05L9.38 1.05L9.38 1.05Q9.60 1.05 9.60 1.27L9.60 1.27L9.60 5.73L11.40 5.73L11.40 1.27L11.40 1.27Q11.40 1.05 11.62 1.05L11.62 1.05L13.06 1.05L13.06 1.05Q13.30 1.05 13.30 1.27L13.30 1.27L13.30 12.02L13.30 12.02Q13.30 12.25 13.06 12.25L13.06 12.25L11.62 12.25L11.62 12.25Q11.52 12.25 11.46 12.19L11.46 12.19L11.46 12.19Q11.40 12.13 11.40 12.02L11.40 12.02L11.40 7.57L9.60 7.57L9.60 12.02L9.60 12.02Q9.60 12.13 9.54 12.19L9.54 12.19L9.54 12.19Q9.48 12.25 9.38 12.25L9.38 12.25L7.94 12.25L7.94 12.25Q7.70 12.25 7.70 12.02ZM14.70 12.02L14.70 12.02L14.70 1.27L14.70 1.27Q14.70 1.05 14.92 1.05L14.92 1.05L16.38 1.05L16.38 1.05Q16.60 1.05 16.60 1.27L16.60 1.27L16.60 12.02L16.60 12.02Q16.60 12.13 16.54 12.19L16.54 12.19L16.54 12.19Q16.48 12.25 16.38 12.25L16.38 12.25L14.92 12.25L14.92 12.25Q14.70 12.25 14.70 12.02ZM17.72 2.67L17.72 2.67L17.72 1.27L17.72 1.27Q17.72 1.05 17.94 1.05L17.94 1.05L23.10 1.05L23.10 1.05Q23.32 1.05 23.32 1.27L23.32 1.27L23.32 2.67L23.32 2.67Q23.32 2.90 23.10 2.90L23.10 2.90L21.47 2.90L21.47 12.02L21.47 12.02Q21.47 12.25 21.25 12.25L21.25 12.25L19.80 12.25L19.80 12.25Q19.57 12.25 19.57 12.02L19.57 12.02L19.57 2.90L17.94 2.90L17.94 2.90Q17.84 2.90 17.78 2.84L17.78 2.84L17.78 2.84Q17.72 2.78 17.72 2.67Z"></path></g><!----><!----></svg>